<?xml version="1.0" standalone="no"?>
<!DOCTYPE svg PUBLIC "-//W3C//DTD SVG 20010904//EN"
 "http://www.w3.org/TR/2001/REC-SVG-20010904/DTD/svg10.dtd">
<svg version="1.0" xmlns="http://www.w3.org/2000/svg"
 width="260.000000pt" height="260.000000pt" viewBox="0 0 260.000000 260.000000"
 preserveAspectRatio="xMidYMid meet">
<metadata>
Created by potrace 1.11, written by Peter Selinger 2001-2013
</metadata>
<g transform="translate(0.000000,260.000000) scale(0.100000,-0.100000)"
fill="#000000" stroke="none">
<path d="M1105 2559 c-157 -23 -370 -108 -517 -206 -94 -63 -234 -197 -306
-293 -112 -148 -205 -361 -237 -544 -19 -114 -19 -328 0 -442 43 -245 158
-472 333 -656 113 -118 221 -197 367 -268 194 -95 343 -130 560 -130 217 0
366 35 560 130 146 71 254 150 367 268 175 184 290 411 333 656 19 114 19 328
0 442 -32 183 -125 396 -237 544 -72 96 -212 230 -306 293 -153 102 -359 183
-526 206 -90 13 -304 12 -391 0z m-695 -820 l0 -101 31 26 c37 31 105 35 146
9 44 -29 53 -68 53 -228 l0 -145 -75 0 -74 0 -3 143 -3 142 -35 0 -35 0 -3
-142 -3 -143 -74 0 -75 0 0 270 0 270 75 0 75 0 0 -101z m614 -83 c44 -33 66
-79 66 -136 l0 -40 -125 0 -125 0 0 -34 c0 -41 22 -66 57 -66 29 0 63 25 63
47 0 9 17 13 66 13 l66 0 -7 -27 c-18 -73 -83 -113 -186 -113 -134 0 -212 72
-213 196 0 80 35 142 96 173 36 18 57 21 124 19 71 -3 85 -6 118 -32z m261
-73 c16 -57 33 -103 37 -103 3 0 16 43 29 95 13 52 26 100 29 106 4 6 35 9 72
7 l66 -3 -73 -199 c-40 -109 -86 -217 -102 -240 -32 -46 -101 -86 -149 -86
-55 0 -64 8 -64 55 l0 44 35 -6 c41 -7 75 17 75 52 0 12 -31 104 -69 204 l-70
182 77 -3 77 -3 30 -102z m-875 -383 l0 -50 -75 0 -75 0 0 50 0 50 75 0 75 0
0 -50z m220 -51 l0 -101 31 26 c37 31 105 35 146 9 44 -29 53 -68 53 -228 l0
-145 -75 0 -74 0 -3 143 -3 142 -35 0 -35 0 -3 -142 -3 -143 -74 0 -75 0 0
270 0 270 75 0 75 0 0 -101z m597 -68 c41 -19 63 -45 63 -75 0 -22 -105 -23
-127 0 -10 10 -29 14 -57 12 -33 -2 -41 -7 -41 -23 0 -14 9 -21 35 -26 19 -4
61 -12 92 -19 71 -14 108 -52 108 -108 -1 -89 -61 -132 -188 -132 -116 0 -171
27 -187 93 l-7 27 56 0 c43 0 61 -5 76 -20 23 -23 86 -27 114 -7 17 12 17 15
3 29 -9 9 -42 19 -74 23 -108 13 -158 49 -158 114 0 81 71 131 185 131 42 0
79 -7 107 -19z m437 -1 c61 -29 70 -50 76 -175 5 -105 6 -110 28 -113 18 -3
22 -10 22 -37 0 -38 -12 -45 -76 -45 -51 0 -104 23 -104 45 0 11 -12 7 -42
-15 -74 -54 -193 -37 -217 31 -35 100 25 159 177 174 76 7 84 15 62 56 -15 27
-75 26 -92 -1 -11 -17 -24 -20 -81 -20 -66 0 -68 1 -62 23 10 31 45 67 80 83
48 21 181 18 229 -6z m291 -10 c6 -28 25 -43 25 -20 0 6 15 19 33 30 41 25
118 27 154 3 44 -29 53 -68 53 -228 l0 -145 -75 0 -74 0 -3 143 -3 142 -35 0
-35 0 -3 -142 -3 -143 -74 0 -75 0 0 195 0 195 54 0 c52 0 55 -1 61 -30z
m-1555 -170 l0 -190 -70 0 -70 0 0 190 0 190 70 0 70 0 0 -190z"/>
<path d="M857 1592 c-33 -37 -22 -52 38 -52 47 0 55 3 55 18 0 24 -31 52 -57
52 -11 0 -27 -8 -36 -18z"/>
<path d="M1507 862 c-32 -35 -14 -72 34 -72 32 0 59 32 59 67 0 20 -5 23 -38
23 -25 0 -45 -7 -55 -18z"/>
</g>
</svg>
